<svg width="192" height="192" viewBox="0 0 192 192" fill="none" xmlns="http://www.w3.org/2000/svg">
<rect width="192" height="192" fill="white"/>
<path d="M79 86L60 108.5L79 131" stroke="black" stroke-width="8" stroke-linecap="round" stroke-linejoin="round"/>
<path d="M113 86L132 108.5L113 131" stroke="black" stroke-width="8" stroke-linecap="round" stroke-linejoin="round"/>
<path d="M167.2 171C171.921 171 176.448 169.128 179.786 165.797C183.125 162.465 185 157.947 185 153.235V64.4118C185 59.7003 183.125 55.1817 179.786 51.8502C176.448 48.5187 171.921 46.6471 167.2 46.6471H96.89C93.9131 46.6762 90.9764 45.9597 88.3487 44.5631C85.721 43.1665 83.4862 41.1345 81.849 38.6529L74.64 27.9941C73.0192 25.5379 70.8128 23.5217 68.2186 22.1264C65.6245 20.7311 62.7239 20.0005 59.777 20H24.8C20.0791 20 15.5516 21.8716 12.2135 25.2032C8.87535 28.5347 7 33.0532 7 37.7647V153.235C7 157.947 8.87535 162.465 12.2135 165.797C15.5516 169.128 20.0791 171 24.8 171H167.2Z" stroke="black" stroke-width="8" stroke-linecap="round" stroke-linejoin="round"/>
</svg>
